<svg xmlns="http://www.w3.org/2000/svg" width="578" height="401" fill="none" viewBox="0 0 578 401"><mask id="mask0_947_1823" style="mask-type:alpha" width="579" height="401" x="0" y="0" maskUnits="userSpaceOnUse"><path fill="#F5F5F5" d="M0 0.98999H578V400.192H0V0.98999Z"/></mask><g mask="url(#mask0_947_1823)"><rect width="790.533" height="533.02" x="-106.899" y="-56.607" fill="#E7E7EA"/><rect width="321.831" height="305.016" x="92.233" y="469.188" fill="#fff" rx="10" transform="rotate(-145.501 92.2334 469.188)"/><rect width="321.831" height="305.016" x="92.233" y="469.188" fill="url(#paint0_linear_947_1823)" rx="10" transform="rotate(-145.501 92.2334 469.188)"/><rect width="321.831" height="305.016" x="92.233" y="469.188" fill="url(#paint1_radial_947_1823)" rx="10" transform="rotate(-145.501 92.2334 469.188)"/><rect width="121.347" height="115.007" x="389.39" y="237.112" fill="#fff" rx="10" transform="rotate(-145.501 389.39 237.112)"/><rect width="121.347" height="115.007" x="389.39" y="237.112" fill="url(#paint2_linear_947_1823)" rx="10" transform="rotate(-145.501 389.39 237.112)"/><rect width="121.347" height="115.007" x="389.39" y="237.112" fill="url(#paint3_radial_947_1823)" rx="10" transform="rotate(-145.501 389.39 237.112)"/></g><defs><linearGradient id="paint0_linear_947_1823" x1="253.149" x2="253.149" y1="469.188" y2="774.203" gradientUnits="userSpaceOnUse"><stop stop-color="#727272"/><stop offset="1" stop-opacity="0"/></linearGradient><radialGradient id="paint1_radial_947_1823" cx="0" cy="0" r="1" gradientTransform="translate(357.27 740.113) rotate(-129.96) scale(238.76 241.348)" gradientUnits="userSpaceOnUse"><stop stop-color="#fff"/><stop offset=".672" stop-color="#fff" stop-opacity="0"/></radialGradient><linearGradient id="paint2_linear_947_1823" x1="450.064" x2="450.064" y1="237.112" y2="352.119" gradientUnits="userSpaceOnUse"><stop stop-color="#727272"/><stop offset="1" stop-opacity="0"/></linearGradient><radialGradient id="paint3_radial_947_1823" cx="0" cy="0" r="1" gradientTransform="translate(489.323 339.265) rotate(-129.96) scale(90.0254 91.0011)" gradientUnits="userSpaceOnUse"><stop stop-color="#fff"/><stop offset=".672" stop-color="#fff" stop-opacity="0"/></radialGradient></defs></svg>