<svg xmlns="http://www.w3.org/2000/svg" width="236" height="236" fill="none" viewBox="0 0 236 236"><g clip-path="url(#clip0_962_1739)"><rect width="236" height="236" fill="#E8E8EB"/><rect width="49" height="98" x="215" y="138" fill="#fff" rx="24.5" transform="rotate(180 215 138)"/><rect width="49" height="98" x="215" y="138" fill="url(#paint0_linear_962_1739)" rx="24.5" transform="rotate(180 215 138)"/><rect width="49" height="98" x="215" y="138" fill="url(#paint1_radial_962_1739)" rx="24.5" transform="rotate(180 215 138)"/><path fill="#fff" d="M93.0596 118.221C100.952 99.387 127.638 99.387 135.531 118.221L184.311 234.624C190.669 249.796 179.526 266.548 163.075 266.548H65.5152C49.0649 266.548 37.9214 249.796 44.2794 234.624L93.0596 118.221Z"/><path fill="url(#paint2_linear_962_1739)" d="M93.0596 118.221C100.952 99.387 127.638 99.387 135.531 118.221L184.311 234.624C190.669 249.796 179.526 266.548 163.075 266.548H65.5152C49.0649 266.548 37.9214 249.796 44.2794 234.624L93.0596 118.221Z"/><path fill="url(#paint3_radial_962_1739)" d="M93.0596 118.221C100.952 99.387 127.638 99.387 135.531 118.221L184.311 234.624C190.669 249.796 179.526 266.548 163.075 266.548H65.5152C49.0649 266.548 37.9214 249.796 44.2794 234.624L93.0596 118.221Z"/><rect width="170" height="170" x="199" y="189.743" fill="#fff" rx="85" transform="rotate(180 199 189.743)"/><rect width="170" height="170" x="199" y="189.743" fill="url(#paint4_linear_962_1739)" rx="85" transform="rotate(180 199 189.743)"/><rect width="170" height="170" x="199" y="189.743" fill="url(#paint5_radial_962_1739)" rx="85" transform="rotate(180 199 189.743)"/><rect width="49" height="105" x="61" y="138" fill="#fff" rx="24.5" transform="rotate(180 61 138)"/><rect width="49" height="105" x="61" y="138" fill="url(#paint6_linear_962_1739)" rx="24.5" transform="rotate(180 61 138)"/><rect width="49" height="105" x="61" y="138" fill="url(#paint7_radial_962_1739)" rx="24.5" transform="rotate(180 61 138)"/><g filter="url(#filter0_i_962_1739)"><ellipse cx="141" cy="115.5" fill="#D9D9D9" rx="10" ry="10.5"/></g><g filter="url(#filter1_i_962_1739)"><ellipse cx="176" cy="115.5" fill="#D9D9D9" rx="10" ry="10.5"/></g><rect width="193" height="64" x="211" y="75" fill="#fff" rx="32" transform="rotate(180 211 75)"/><rect width="193" height="64" x="211" y="75" fill="url(#paint8_linear_962_1739)" rx="32" transform="rotate(180 211 75)"/><rect width="193" height="64" x="211" y="75" fill="url(#paint9_radial_962_1739)" rx="32" transform="rotate(180 211 75)"/></g><defs><filter id="filter0_i_962_1739" width="20" height="29.348" x="131" y="105" color-interpolation-filters="sRGB" filterUnits="userSpaceOnUse"><feFlood flood-opacity="0" result="BackgroundImageFix"/><feBlend in="SourceGraphic" in2="BackgroundImageFix" mode="normal" result="shape"/><feColorMatrix in="SourceAlpha" result="hardAlpha" type="matrix" values="0 0 0 0 0 0 0 0 0 0 0 0 0 0 0 0 0 0 127 0"/><feOffset dy="8.348"/><feGaussianBlur stdDeviation="10.136"/><feComposite in2="hardAlpha" k2="-1" k3="1" operator="arithmetic"/><feColorMatrix type="matrix" values="0 0 0 0 0 0 0 0 0 0 0 0 0 0 0 0 0 0 0.25 0"/><feBlend in2="shape" mode="normal" result="effect1_innerShadow_962_1739"/></filter><filter id="filter1_i_962_1739" width="20" height="29.348" x="166" y="105" color-interpolation-filters="sRGB" filterUnits="userSpaceOnUse"><feFlood flood-opacity="0" result="BackgroundImageFix"/><feBlend in="SourceGraphic" in2="BackgroundImageFix" mode="normal" result="shape"/><feColorMatrix in="SourceAlpha" result="hardAlpha" type="matrix" values="0 0 0 0 0 0 0 0 0 0 0 0 0 0 0 0 0 0 127 0"/><feOffset dy="8.348"/><feGaussianBlur stdDeviation="10.136"/><feComposite in2="hardAlpha" k2="-1" k3="1" operator="arithmetic"/><feColorMatrix type="matrix" values="0 0 0 0 0 0 0 0 0 0 0 0 0 0 0 0 0 0 0.25 0"/><feBlend in2="shape" mode="normal" result="effect1_innerShadow_962_1739"/></filter><linearGradient id="paint0_linear_962_1739" x1="239.5" x2="239.5" y1="138" y2="236" gradientUnits="userSpaceOnUse"><stop stop-color="#727272"/><stop offset="1" stop-opacity="0"/></linearGradient><radialGradient id="paint1_radial_962_1739" cx="0" cy="0" r="1" gradientTransform="translate(255.353 225.047) rotate(-111.656) scale(63.2655 44.5565)" gradientUnits="userSpaceOnUse"><stop stop-color="#fff"/><stop offset=".672" stop-color="#fff" stop-opacity="0"/></radialGradient><linearGradient id="paint2_linear_962_1739" x1="245.668" x2="53.516" y1="225.518" y2="215.355" gradientUnits="userSpaceOnUse"><stop/><stop offset="1" stop-opacity="0"/></linearGradient><radialGradient id="paint3_radial_962_1739" cx="0" cy="0" r="1" gradientTransform="translate(176.604 303.226) rotate(-119.959) scale(183.753 163.248)" gradientUnits="userSpaceOnUse"><stop stop-color="#fff"/><stop offset=".672" stop-color="#fff" stop-opacity="0"/></radialGradient><linearGradient id="paint4_linear_962_1739" x1="284" x2="284" y1="189.743" y2="359.743" gradientUnits="userSpaceOnUse"><stop stop-color="#727272"/><stop offset="1" stop-opacity="0"/></linearGradient><radialGradient id="paint5_radial_962_1739" cx="0" cy="0" r="1" gradientTransform="translate(339 340.743) rotate(-128.454) scale(130.25)" gradientUnits="userSpaceOnUse"><stop stop-color="#fff"/><stop offset=".672" stop-color="#fff" stop-opacity="0"/></radialGradient><linearGradient id="paint6_linear_962_1739" x1="85.5" x2="85.5" y1="138" y2="243" gradientUnits="userSpaceOnUse"><stop stop-color="#727272"/><stop offset="1" stop-opacity="0"/></linearGradient><radialGradient id="paint7_radial_962_1739" cx="0" cy="0" r="1" gradientTransform="translate(101.353 231.265) rotate(-110.334) scale(67.1869 44.9528)" gradientUnits="userSpaceOnUse"><stop stop-color="#fff"/><stop offset=".672" stop-color="#fff" stop-opacity="0"/></radialGradient><linearGradient id="paint8_linear_962_1739" x1="307.5" x2="307.5" y1="75" y2="139" gradientUnits="userSpaceOnUse"><stop stop-color="#727272"/><stop offset="1" stop-opacity="0"/></linearGradient><radialGradient id="paint9_radial_962_1739" cx="0" cy="0" r="1" gradientTransform="translate(369.941 131.847) rotate(-157.336) scale(99.6543 72.7608)" gradientUnits="userSpaceOnUse"><stop stop-color="#fff"/><stop offset=".672" stop-color="#fff" stop-opacity="0"/></radialGradient><clipPath id="clip0_962_1739"><rect width="236" height="236" fill="#fff"/></clipPath></defs></svg>